<svg width="20" height="20" viewBox="0 0 1792 2309.2599" fill="#BECCCF" xmlns="http://www.w3.org/2000/svg"><path d="M1792 592v1120q0 139-98.5 237.5T1456 2048H336q-139 0-237.5-98.5T0 1712V592q0-139 98.5-237.5T336 256h1120q139 0 237.5 98.5T1792 592zm-685 1089q14 19 24 30.5t35.5 24.5 57.5 13h149q31 0 52.5-21.5t21.5-52.5V629q0-31-21.5-52.5T1373 555h-149q-31 0-53 21.5t-22 52.5v671L685 623q-13-19-24-31t-36-24.5-57-12.5H419q-31 0-52.5 21.5T345 629v1046q0 31 21.5 52.5T419 1749h149q31 0 53-21.5t22-52.5v-671z"/></svg>